<svg viewBox="0 0 400 200" xmlns="http://www.w3.org/2000/svg" role="img" aria-label="Relative references slide when dragged, absolute references stay locked">
<text x="78" y="14" text-anchor="middle" font-size="11.5" font-weight="700" fill="#A8322A">A1 &#183; slides as you drag</text>
<text x="290" y="14" text-anchor="middle" font-size="11.5" font-weight="700" fill="#1F6B47">$A$1 &#183; stays locked</text>
<rect x="4" y="30" width="150" height="26" fill="#F4F0E6" stroke="#DED6C4"/>
<text x="14" y="47" font-size="11" font-weight="700" fill="#55606E">rate</text>
<text x="96" y="47" font-size="11" font-weight="700" fill="#0E6F7E">0.20</text>
<text x="79" y="24" text-anchor="middle" font-size="11" font-weight="700" fill="#8A93A0">A1</text>
<rect x="4" y="70" width="150" height="26" fill="#fff" stroke="#DED6C4"/>
<text x="12" y="87" font-size="10.5" fill="#1C2B3A">=B2*A1</text>
<text x="140" y="88" text-anchor="middle" font-size="14" font-weight="700" fill="#1F6B47">&#10003;</text>
<rect x="4" y="100" width="150" height="26" fill="#fff" stroke="#DED6C4"/>
<text x="12" y="117" font-size="10.5" fill="#1C2B3A">=B3*A2</text>
<text x="140" y="118" text-anchor="middle" font-size="14" font-weight="700" fill="#A8322A">&#10007;</text>
<rect x="4" y="130" width="150" height="26" fill="#fff" stroke="#DED6C4"/>
<text x="12" y="147" font-size="10.5" fill="#1C2B3A">=B4*A3</text>
<text x="140" y="148" text-anchor="middle" font-size="14" font-weight="700" fill="#A8322A">&#10007;</text>
<rect x="216" y="30" width="150" height="26" fill="#F4F0E6" stroke="#DED6C4"/>
<text x="226" y="47" font-size="11" font-weight="700" fill="#55606E">rate</text>
<text x="308" y="47" font-size="11" font-weight="700" fill="#0E6F7E">0.20</text>
<text x="291" y="24" text-anchor="middle" font-size="11" font-weight="700" fill="#8A93A0">A1</text>
<rect x="216" y="70" width="150" height="26" fill="#fff" stroke="#DED6C4"/>
<text x="224" y="87" font-size="10.5" fill="#1C2B3A">=B2*$A$1</text>
<text x="352" y="88" text-anchor="middle" font-size="14" font-weight="700" fill="#1F6B47">&#10003;</text>
<rect x="216" y="100" width="150" height="26" fill="#fff" stroke="#DED6C4"/>
<text x="224" y="117" font-size="10.5" fill="#1C2B3A">=B3*$A$1</text>
<text x="352" y="118" text-anchor="middle" font-size="14" font-weight="700" fill="#1F6B47">&#10003;</text>
<rect x="216" y="130" width="150" height="26" fill="#fff" stroke="#DED6C4"/>
<text x="224" y="147" font-size="10.5" fill="#1C2B3A">=B4*$A$1</text>
<text x="352" y="148" text-anchor="middle" font-size="14" font-weight="700" fill="#1F6B47">&#10003;</text>
<path d="M160,83 C186,83 186,113 160,113" fill="none" stroke="#A8322A" stroke-width="1.4"/>
<text x="200" y="190" text-anchor="middle" font-size="12" font-weight="700" fill="#1C2B3A">half of all broken spreadsheets are a missing $</text>
</svg>
