<svg viewBox="0 0 400 220" xmlns="http://www.w3.org/2000/svg" role="img" aria-label="A full table of rows, with WHERE narrowing it down to a highlighted subset">
<defs><marker id="w1a" markerWidth="8" markerHeight="8" refX="7" refY="3" orient="auto"><path d="M0,0 L7,3 L0,6 z" fill="#55606E"/></marker></defs>
<text x="70" y="16" text-anchor="middle" font-size="11.5" font-weight="700" fill="#55606E">clearance_sales</text>
<rect x="10" y="24" width="120" height="160" fill="#fff" stroke="#DED6C4"/>
<rect x="10" y="24" width="120" height="18" fill="#F4F0E6"/>
<text x="18" y="37" font-size="9.5" font-weight="700" fill="#55606E">region</text>
<rect x="10" y="42" width="120" height="17" fill="#FBE9E7"/>
<text x="18" y="54" font-size="9.5" fill="#1C2B3A">South</text>
<rect x="10" y="59" width="120" height="17" fill="#E3F1F3" stroke="#0E6F7E" stroke-width="1.4"/>
<text x="18" y="71" font-size="9.5" font-weight="700" fill="#0E6F7E">North</text>
<rect x="10" y="76" width="120" height="17" fill="#FBE9E7"/>
<text x="18" y="88" font-size="9.5" fill="#1C2B3A">West</text>
<rect x="10" y="93" width="120" height="17" fill="#E3F1F3" stroke="#0E6F7E" stroke-width="1.4"/>
<text x="18" y="105" font-size="9.5" font-weight="700" fill="#0E6F7E">North</text>
<rect x="10" y="110" width="120" height="17" fill="#FBE9E7"/>
<text x="18" y="122" font-size="9.5" fill="#1C2B3A">East</text>
<rect x="10" y="127" width="120" height="17" fill="#E3F1F3" stroke="#0E6F7E" stroke-width="1.4"/>
<text x="18" y="139" font-size="9.5" font-weight="700" fill="#0E6F7E">North</text>
<rect x="10" y="144" width="120" height="17" fill="#FBE9E7"/>
<text x="18" y="156" font-size="9.5" fill="#1C2B3A">South</text>
<rect x="10" y="161" width="120" height="17" fill="#FBE9E7"/>
<text x="18" y="173" font-size="9.5" fill="#1C2B3A">West</text>
<text x="70" y="198" text-anchor="middle" font-size="10.5" fill="#55606E">every row, unfiltered</text>

<line x1="140" y1="104" x2="176" y2="104" stroke="#55606E" stroke-width="1.6" marker-end="url(#w1a)"/>
<rect x="150" y="80" width="76" height="30" rx="6" fill="#FBF0D9" stroke="#9A6B00"/>
<text x="188" y="97" text-anchor="middle" font-size="10" font-weight="700" fill="#9A6B00">WHERE</text>
<text x="188" y="107" text-anchor="middle" font-size="8" fill="#9A6B00">region = 'North'</text>

<line x1="226" y1="104" x2="262" y2="104" stroke="#0E6F7E" stroke-width="1.8" marker-end="url(#w1a)"/>

<text x="330" y="16" text-anchor="middle" font-size="11.5" font-weight="700" fill="#0E6F7E">your sample</text>
<rect x="270" y="24" width="120" height="160" fill="#fff" stroke="#DED6C4"/>
<rect x="270" y="24" width="120" height="18" fill="#F4F0E6"/>
<text x="278" y="37" font-size="9.5" font-weight="700" fill="#55606E">region</text>
<rect x="270" y="59" width="120" height="17" fill="#E3F1F3" stroke="#0E6F7E" stroke-width="1.4"/>
<text x="278" y="71" font-size="9.5" font-weight="700" fill="#0E6F7E">North</text>
<rect x="270" y="93" width="120" height="17" fill="#E3F1F3" stroke="#0E6F7E" stroke-width="1.4"/>
<text x="278" y="105" font-size="9.5" font-weight="700" fill="#0E6F7E">North</text>
<rect x="270" y="127" width="120" height="17" fill="#E3F1F3" stroke="#0E6F7E" stroke-width="1.4"/>
<text x="278" y="139" font-size="9.5" font-weight="700" fill="#0E6F7E">North</text>
<text x="330" y="198" text-anchor="middle" font-size="10.5" fill="#0E6F7E" font-weight="700">only the rows you asked for</text>
</svg>
